<svg xmlns="http://www.w3.org/2000/svg" version="1.1" xmlns:xlink="http://www.w3.org/1999/xlink" xmlns:svgjs="http://svgjs.com/svgjs" width="520" height="750" preserveAspectRatio="none" viewBox="0 0 520 750">
    <g mask="url(&quot;#SvgjsMask1000&quot;)" fill="none">
        <rect width="520" height="750" x="0" y="0" fill="rgba(255, 255, 255, 1)"></rect>
        <use xlink:href="#SvgjsG1012" transform="translate(0, 0)" fill="rgba(238, 238, 238, 1)"></use>
        <use xlink:href="#SvgjsG1012" transform="translate(0, 300)" fill="rgba(238, 238, 238, 1)"></use>
        <use xlink:href="#SvgjsG1012" transform="translate(0, 600)" fill="rgba(238, 238, 238, 1)"></use>
        <use xlink:href="#SvgjsG1012" transform="translate(300, 0)" fill="rgba(238, 238, 238, 1)"></use>
        <use xlink:href="#SvgjsG1012" transform="translate(300, 300)" fill="rgba(238, 238, 238, 1)"></use>
        <use xlink:href="#SvgjsG1012" transform="translate(300, 600)" fill="rgba(238, 238, 238, 1)"></use>
    </g>
    <defs>
        <mask id="SvgjsMask1000">
            <rect width="520" height="750" fill="#ffffff"></rect>
        </mask>
        <g id="SvgjsG1004">
            <path d="M16.4 6.21l-3.08 9.94L8.96 15.38 9.46 4.98l5.33 0.94L16.49 2.43 17.06 2.7l-1.63 3.33 0.97 0.18zM7.8 10.8s0.42-1.45-1.84-1.85L2.36 8.31c-2.26-0.4-2.36 1.11-2.36 1.11l7.8 1.38zM-0.49 12.18s-0.42 1.45 1.84 1.86l3.6 0.63c2.26 0.4 2.36-1.11 2.36-1.11L-0.49 12.18z m7.59 0.6a0.68 0.68 0 0 0 0.79-0.55c0.06-0.37-0.18-0.72-0.55-0.78L0.18 10.19C-0.19 10.12-0.54 10.37-0.61 10.74a0.68 0.68 0 0 0 0.56 0.78l7.15 1.26z"></path>
        </g>
        <g id="SvgjsG1007">
            <path d="M14.24 13.31L-0.58 10.7c-0.23 1.31 0.66 2.1 1.46 2.24l11.22 1.98c0.96 0.17 1.94-0.44 2.14-1.61zM13.79 3.1L2.98 1.19l-1.26 7.1c-0.17 0.96 0.53 1.87 1.43 2.03l7.01 1.23c1.02 0.18 1.85-0.55 2.01-1.42L12.27 9.54c2 0.35 3.72-0.9 4.03-2.65 0.32-1.79-0.85-3.5-2.51-3.79z m1.23 3.57c-0.18 1.02-1.1 1.86-2.51 1.52L13.19 4.36l0.37 0.07 0 0c1.37 0.24 1.58 1.62 1.46 2.24l0 0z"></path>
        </g>
        <g id="SvgjsG1006">
            <path d="M12.64 5l-3.51 11.3L4.18 15.43 4.75 3.61l6.06 1.07L12.74 0.71 13.38 1.02l-1.84 3.79 1.1 0.19z" fill-rule="evenodd"></path>
        </g>
        <g id="SvgjsG1011">
            <path d="M5.35-0.59s-0.57 4.55 3.45 4.86S9.91 0.58 5.35-0.59m1.55 15.4a2.32 2.32 0 0 1-2.04 0.63c-0.63-0.11-1.2-0.52-1.54-1-0.69-1.08-1.43-3.35-1.42-3.36C1.5 9.72 1.34 8.69 1.51 7.71c0.37-2.09 2.38-3.61 4.48-3.24 1.03 0.18 1.89 0.76 2.46 1.55a3.83 3.83 0 0 1 2.84-0.62c2.1 0.37 3.47 2.48 3.1 4.58-0.17 0.98-0.67 1.89-1.51 3.04 0 0-1.47 1.88-2.49 2.66-0.49 0.34-1.16 0.53-1.79 0.42a2.32 2.32 0 0 1-1.7-1.29" fill-rule="evenodd"></path>
        </g>
        <g id="SvgjsG1005">
            <path d="M2.88 6.8c0.29 0.05 0.57-0.14 0.63-0.43 0.05-0.29-0.15-0.57-0.44-0.62-0.28-0.05-0.57 0.14-0.63 0.44-0.05 0.29 0.15 0.57 0.44 0.61M0.05 7.11a0.06 0.06 0 0 1-0.01-0.05c0.01-0.03 0.04-0.05 0.07-0.04l1.68 0.29c0.08 0.01 0.16-0.04 0.17-0.12 0.01-0.06-0.01-0.11-0.06-0.15L0.5 6.05a0.1 0.1 0 0 1-0.03-0.1c0-0.03 0.02-0.05 0.04-0.06 0 0 4.61-2.82 12.83 2.15l2.63-0.75c0.03-0.01 0.05-0.01 0.08-0.01 0.11 0.02 0.18 0.12 0.16 0.22a0.21 0.21 0 0 1-0.04 0.09l-1.75 1.53 1.12 2.03c0.01 0.03 0.02 0.07 0.01 0.1-0.02 0.1-0.12 0.17-0.22 0.16-0.03 0-0.05-0.02-0.08-0.04l-2.21-1.61S4.01 11.63 0.05 7.11" fill-rule="evenodd"></path>
        </g>
        <g id="SvgjsG1009">
            <path d="M-0.73 12.97l15.23 2.69L14.23 17.22-1 14.54z m0.89-1.4l13.79 2.43-0.16 0.86L0.01 12.43z m2.47-7.42l2.31 0.4-1.22 6.95-2.32-0.41z m4.62 0.81l2.31 0.41-1.22 6.95-2.32-0.41z m4.44 0.78l2.32 0.41-1.23 6.95L10.47 12.69zM0.89 2.27L9.39 0.12l7.25 4.93-0.16 0.91L0.72 3.2z"></path>
        </g>
        <g id="SvgjsG1010">
            <path d="M8.45 1.05a0.29 0.29 0 0 1-0.2-0.32c0.02-0.11 0.1-0.19 0.19-0.22-0.08-0.06-0.12-0.17-0.1-0.28C8.37 0.07 8.52-0.03 8.67 0l1.41 0.24c0.16 0.03 0.26 0.18 0.23 0.34-0.02 0.11-0.1 0.19-0.19 0.22 0.08 0.06 0.13 0.17 0.11 0.28a0.29 0.29 0 0 1-0.29 0.24l0.88 4.97c0.05 0.32 0.05 0.67-0.01 1.01l-1.46 8.28a0.57 0.57 0 0 1-0.66 0.47L4.58 15.32A0.57 0.57 0 0 1 4.12 14.66L5.58 6.38c0.06-0.34 0.17-0.67 0.33-0.96l2.53-4.37z" fill-rule="evenodd"></path>
        </g>
        <g id="SvgjsG1008">
            <path d="M12.28 3.35L5.6 2.17C1.42 1.44 1.23 4.23 1.23 4.23l14.45 2.54S16.47 4.09 12.28 3.35zM3.73 12.78l6.68 1.18c4.19 0.74 4.37-2.06 4.37-2.07L0.33 9.35s-0.78 2.69 3.4 3.43z m10.66-2.32a1.26 1.26 0 0 0 1.45-1.02c0.12-0.68-0.34-1.33-1.02-1.45L1.57 5.65C0.89 5.53 0.23 5.98 0.11 6.66a1.26 1.26 0 0 0 1.02 1.46l13.26 2.34z" fill-rule="evenodd"></path>
        </g>
        <g id="SvgjsG1003">
            <path d="M6.83 1.59a0.29 0.29 0 0 0 0.18 0.11c0.16 0.03 0.31-0.08 0.34-0.24 0.01-0.05 0-0.1-0.01-0.15l-0.19-0.81a0.47 0.47 0 0 0-0.37-0.33 0.47 0.47 0 0 0-0.47 0.73L6.83 1.6z m1.04 0.33c0.02 0.07 0.02 0.14 0.01 0.22-0.05 0.3-0.34 0.5-0.63 0.44-0.11-0.02-0.2-0.07-0.28-0.14l-1.1-1.31a0.97 0.97 0 0 1-0.11-0.66c0.09-0.52 0.59-0.88 1.11-0.78 0.39 0.07 0.68 0.37 0.76 0.73L7.87 1.92zM11.84 3.61a0.29 0.29 0 0 1 0.24 0.33l-0.08 0.44c-0.03 0.16-0.18 0.26-0.33 0.24l-0.27-0.06c0.28 0.25 0.45 0.64 0.38 1.05l-1.71 9.69c-0.09 0.5-0.55 0.83-1.04 0.74L3.95 15.15A0.91 0.91 0 0 1 3.22 14.09l1.71-9.69c0.07-0.41 0.36-0.71 0.71-0.85l-0.26-0.04a0.28 0.28 0 0 1-0.23-0.33L5.23 2.73c0.03-0.16 0.17-0.26 0.33-0.23L11.84 3.61z" fill-rule="evenodd"></path>
        </g>
        <g id="SvgjsG1002">
            <path d="M14.57 6.61L5 15.55l3.07-6.94-4.17-0.66L7.1-0.28l5.05 0.89L9.17 5.66z"></path>
        </g>
        <g id="SvgjsG1001">
            <path d="M13.08 5.99L13.43 4.01 13.25 3.98c-0.54-0.1-1.06 0.27-1.15 0.81-0.1 0.55 0.26 1.06 0.8 1.16l0.18 0.04z m-1.39-0.72L11.14 3.4C11.01 3.01 10.68 2.71 10.25 2.63l-1.98-0.35C8.08 2.25 7.91 2.37 7.88 2.56c-0.03 0.19 0.09 0.36 0.27 0.4l1.98 0.35c0.16 0.03 0.32 0.17 0.37 0.33l0.35 1.2 0.84 0.44z m3.61 2.55c0.24 0.12 0.39 0.4 0.34 0.68l-1.44-0.25c-1.9-0.34-3.72 0.96-4.06 2.87L5.43 10.29c0.27-1.55-0.49-3.03-1.78-3.73L1.21 5.24l0.55-0.58a0.86 0.86 0 0 1 0.78-0.26c0.07 0.01 0.13 0.03 0.18 0.05l5.45 2.82a0.77 0.77 0 0 0 0.22 0.08c0.26 0.05 0.51-0.05 0.68-0.23l1.66-1.69 4.57 2.39z"></path>
            <path d="M12.8 13.13c0.49 0.09 0.95-0.24 1.03-0.73 0.09-0.49-0.24-0.96-0.72-1.05-0.48-0.09-0.94 0.24-1.03 0.74-0.09 0.49 0.24 0.96 0.72 1.04M10.61 11.83c0.23-1.31 1.47-2.19 2.76-1.96C14.67 10.1 15.53 11.34 15.3 12.66c-0.23 1.31-1.47 2.19-2.76 1.96-1.3-0.23-2.16-1.48-1.93-2.79m-8.6-0.77c0.53 0.09 1.04-0.27 1.13-0.81 0.1-0.54-0.26-1.05-0.79-1.14-0.54-0.09-1.04 0.27-1.14 0.8-0.1 0.54 0.26 1.05 0.8 1.15M-0.41 9.62c0.25-1.44 1.62-2.41 3.04-2.15 1.43 0.25 2.37 1.63 2.12 3.06-0.25 1.44-1.61 2.41-3.04 2.16C0.29 12.44-0.66 11.07-0.41 9.62"></path>
        </g>
        <g id="SvgjsG1012">
            <use xlink:href="#SvgjsG1001" transform="translate(0, 0) scale(1.5)" fill="rgba(238, 238, 238, 1)"></use>
            <use xlink:href="#SvgjsG1002" transform="translate(0, 30) scale(1.5)" fill="rgba(238, 238, 238, 1)"></use>
            <use xlink:href="#SvgjsG1003" transform="translate(0, 60) scale(1.5)" fill="rgba(238, 238, 238, 1)"></use>
            <use xlink:href="#SvgjsG1004" transform="translate(0, 90) scale(1.5)" fill="rgba(238, 238, 238, 1)"></use>
            <use xlink:href="#SvgjsG1004" transform="translate(0, 120) scale(1.5)" fill="rgba(238, 238, 238, 1)"></use>
            <use xlink:href="#SvgjsG1002" transform="translate(0, 150) scale(1.5)" fill="rgba(238, 238, 238, 1)"></use>
            <use xlink:href="#SvgjsG1005" transform="translate(0, 180) scale(1.5)" fill="rgba(238, 238, 238, 1)"></use>
            <use xlink:href="#SvgjsG1006" transform="translate(0, 210) scale(1.5)" fill="rgba(238, 238, 238, 1)"></use>
            <use xlink:href="#SvgjsG1001" transform="translate(0, 240) scale(1.5)" fill="rgba(238, 238, 238, 1)"></use>
            <use xlink:href="#SvgjsG1001" transform="translate(0, 270) scale(1.5)" fill="rgba(238, 238, 238, 1)"></use>
            <use xlink:href="#SvgjsG1007" transform="translate(30, 0) scale(1.5)" fill="rgba(238, 238, 238, 1)"></use>
            <use xlink:href="#SvgjsG1008" transform="translate(30, 30) scale(1.5)" fill="rgba(238, 238, 238, 1)"></use>
            <use xlink:href="#SvgjsG1009" transform="translate(30, 60) scale(1.5)" fill="rgba(238, 238, 238, 1)"></use>
            <use xlink:href="#SvgjsG1004" transform="translate(30, 90) scale(1.5)" fill="rgba(238, 238, 238, 1)"></use>
            <use xlink:href="#SvgjsG1010" transform="translate(30, 120) scale(1.5)" fill="rgba(238, 238, 238, 1)"></use>
            <use xlink:href="#SvgjsG1006" transform="translate(30, 150) scale(1.5)" fill="rgba(238, 238, 238, 1)"></use>
            <use xlink:href="#SvgjsG1003" transform="translate(30, 180) scale(1.5)" fill="rgba(238, 238, 238, 1)"></use>
            <use xlink:href="#SvgjsG1006" transform="translate(30, 210) scale(1.5)" fill="rgba(238, 238, 238, 1)"></use>
            <use xlink:href="#SvgjsG1007" transform="translate(30, 240) scale(1.5)" fill="rgba(238, 238, 238, 1)"></use>
            <use xlink:href="#SvgjsG1001" transform="translate(30, 270) scale(1.5)" fill="rgba(238, 238, 238, 1)"></use>
            <use xlink:href="#SvgjsG1004" transform="translate(60, 0) scale(1.5)" fill="rgba(238, 238, 238, 1)"></use>
            <use xlink:href="#SvgjsG1007" transform="translate(60, 30) scale(1.5)" fill="rgba(238, 238, 238, 1)"></use>
            <use xlink:href="#SvgjsG1004" transform="translate(60, 60) scale(1.5)" fill="rgba(238, 238, 238, 1)"></use>
            <use xlink:href="#SvgjsG1006" transform="translate(60, 90) scale(1.5)" fill="rgba(238, 238, 238, 1)"></use>
            <use xlink:href="#SvgjsG1007" transform="translate(60, 120) scale(1.5)" fill="rgba(238, 238, 238, 1)"></use>
            <use xlink:href="#SvgjsG1005" transform="translate(60, 150) scale(1.5)" fill="rgba(238, 238, 238, 1)"></use>
            <use xlink:href="#SvgjsG1002" transform="translate(60, 180) scale(1.5)" fill="rgba(238, 238, 238, 1)"></use>
            <use xlink:href="#SvgjsG1009" transform="translate(60, 210) scale(1.5)" fill="rgba(238, 238, 238, 1)"></use>
            <use xlink:href="#SvgjsG1003" transform="translate(60, 240) scale(1.5)" fill="rgba(238, 238, 238, 1)"></use>
            <use xlink:href="#SvgjsG1005" transform="translate(60, 270) scale(1.5)" fill="rgba(238, 238, 238, 1)"></use>
            <use xlink:href="#SvgjsG1005" transform="translate(90, 0) scale(1.5)" fill="rgba(238, 238, 238, 1)"></use>
            <use xlink:href="#SvgjsG1004" transform="translate(90, 30) scale(1.5)" fill="rgba(238, 238, 238, 1)"></use>
            <use xlink:href="#SvgjsG1009" transform="translate(90, 60) scale(1.5)" fill="rgba(238, 238, 238, 1)"></use>
            <use xlink:href="#SvgjsG1001" transform="translate(90, 90) scale(1.5)" fill="rgba(238, 238, 238, 1)"></use>
            <use xlink:href="#SvgjsG1005" transform="translate(90, 120) scale(1.5)" fill="rgba(238, 238, 238, 1)"></use>
            <use xlink:href="#SvgjsG1009" transform="translate(90, 150) scale(1.5)" fill="rgba(238, 238, 238, 1)"></use>
            <use xlink:href="#SvgjsG1003" transform="translate(90, 180) scale(1.5)" fill="rgba(238, 238, 238, 1)"></use>
            <use xlink:href="#SvgjsG1002" transform="translate(90, 210) scale(1.5)" fill="rgba(238, 238, 238, 1)"></use>
            <use xlink:href="#SvgjsG1008" transform="translate(90, 240) scale(1.5)" fill="rgba(238, 238, 238, 1)"></use>
            <use xlink:href="#SvgjsG1002" transform="translate(90, 270) scale(1.5)" fill="rgba(238, 238, 238, 1)"></use>
            <use xlink:href="#SvgjsG1006" transform="translate(120, 0) scale(1.5)" fill="rgba(238, 238, 238, 1)"></use>
            <use xlink:href="#SvgjsG1010" transform="translate(120, 30) scale(1.5)" fill="rgba(238, 238, 238, 1)"></use>
            <use xlink:href="#SvgjsG1004" transform="translate(120, 60) scale(1.5)" fill="rgba(238, 238, 238, 1)"></use>
            <use xlink:href="#SvgjsG1003" transform="translate(120, 90) scale(1.5)" fill="rgba(238, 238, 238, 1)"></use>
            <use xlink:href="#SvgjsG1003" transform="translate(120, 120) scale(1.5)" fill="rgba(238, 238, 238, 1)"></use>
            <use xlink:href="#SvgjsG1011" transform="translate(120, 150) scale(1.5)" fill="rgba(238, 238, 238, 1)"></use>
            <use xlink:href="#SvgjsG1004" transform="translate(120, 180) scale(1.5)" fill="rgba(238, 238, 238, 1)"></use>
            <use xlink:href="#SvgjsG1007" transform="translate(120, 210) scale(1.5)" fill="rgba(238, 238, 238, 1)"></use>
            <use xlink:href="#SvgjsG1005" transform="translate(120, 240) scale(1.5)" fill="rgba(238, 238, 238, 1)"></use>
            <use xlink:href="#SvgjsG1001" transform="translate(120, 270) scale(1.5)" fill="rgba(238, 238, 238, 1)"></use>
            <use xlink:href="#SvgjsG1001" transform="translate(150, 0) scale(1.5)" fill="rgba(238, 238, 238, 1)"></use>
            <use xlink:href="#SvgjsG1009" transform="translate(150, 30) scale(1.5)" fill="rgba(238, 238, 238, 1)"></use>
            <use xlink:href="#SvgjsG1007" transform="translate(150, 60) scale(1.5)" fill="rgba(238, 238, 238, 1)"></use>
            <use xlink:href="#SvgjsG1001" transform="translate(150, 90) scale(1.5)" fill="rgba(238, 238, 238, 1)"></use>
            <use xlink:href="#SvgjsG1005" transform="translate(150, 120) scale(1.5)" fill="rgba(238, 238, 238, 1)"></use>
            <use xlink:href="#SvgjsG1010" transform="translate(150, 150) scale(1.5)" fill="rgba(238, 238, 238, 1)"></use>
            <use xlink:href="#SvgjsG1009" transform="translate(150, 180) scale(1.5)" fill="rgba(238, 238, 238, 1)"></use>
            <use xlink:href="#SvgjsG1003" transform="translate(150, 210) scale(1.5)" fill="rgba(238, 238, 238, 1)"></use>
            <use xlink:href="#SvgjsG1001" transform="translate(150, 240) scale(1.5)" fill="rgba(238, 238, 238, 1)"></use>
            <use xlink:href="#SvgjsG1003" transform="translate(150, 270) scale(1.5)" fill="rgba(238, 238, 238, 1)"></use>
            <use xlink:href="#SvgjsG1009" transform="translate(180, 0) scale(1.5)" fill="rgba(238, 238, 238, 1)"></use>
            <use xlink:href="#SvgjsG1009" transform="translate(180, 30) scale(1.5)" fill="rgba(238, 238, 238, 1)"></use>
            <use xlink:href="#SvgjsG1007" transform="translate(180, 60) scale(1.5)" fill="rgba(238, 238, 238, 1)"></use>
            <use xlink:href="#SvgjsG1006" transform="translate(180, 90) scale(1.5)" fill="rgba(238, 238, 238, 1)"></use>
            <use xlink:href="#SvgjsG1003" transform="translate(180, 120) scale(1.5)" fill="rgba(238, 238, 238, 1)"></use>
            <use xlink:href="#SvgjsG1002" transform="translate(180, 150) scale(1.5)" fill="rgba(238, 238, 238, 1)"></use>
            <use xlink:href="#SvgjsG1007" transform="translate(180, 180) scale(1.5)" fill="rgba(238, 238, 238, 1)"></use>
            <use xlink:href="#SvgjsG1003" transform="translate(180, 210) scale(1.5)" fill="rgba(238, 238, 238, 1)"></use>
            <use xlink:href="#SvgjsG1004" transform="translate(180, 240) scale(1.5)" fill="rgba(238, 238, 238, 1)"></use>
            <use xlink:href="#SvgjsG1011" transform="translate(180, 270) scale(1.5)" fill="rgba(238, 238, 238, 1)"></use>
            <use xlink:href="#SvgjsG1006" transform="translate(210, 0) scale(1.5)" fill="rgba(238, 238, 238, 1)"></use>
            <use xlink:href="#SvgjsG1008" transform="translate(210, 30) scale(1.5)" fill="rgba(238, 238, 238, 1)"></use>
            <use xlink:href="#SvgjsG1008" transform="translate(210, 60) scale(1.5)" fill="rgba(238, 238, 238, 1)"></use>
            <use xlink:href="#SvgjsG1003" transform="translate(210, 90) scale(1.5)" fill="rgba(238, 238, 238, 1)"></use>
            <use xlink:href="#SvgjsG1001" transform="translate(210, 120) scale(1.5)" fill="rgba(238, 238, 238, 1)"></use>
            <use xlink:href="#SvgjsG1009" transform="translate(210, 150) scale(1.5)" fill="rgba(238, 238, 238, 1)"></use>
            <use xlink:href="#SvgjsG1001" transform="translate(210, 180) scale(1.5)" fill="rgba(238, 238, 238, 1)"></use>
            <use xlink:href="#SvgjsG1003" transform="translate(210, 210) scale(1.5)" fill="rgba(238, 238, 238, 1)"></use>
            <use xlink:href="#SvgjsG1001" transform="translate(210, 240) scale(1.5)" fill="rgba(238, 238, 238, 1)"></use>
            <use xlink:href="#SvgjsG1005" transform="translate(210, 270) scale(1.5)" fill="rgba(238, 238, 238, 1)"></use>
            <use xlink:href="#SvgjsG1010" transform="translate(240, 0) scale(1.5)" fill="rgba(238, 238, 238, 1)"></use>
            <use xlink:href="#SvgjsG1005" transform="translate(240, 30) scale(1.5)" fill="rgba(238, 238, 238, 1)"></use>
            <use xlink:href="#SvgjsG1010" transform="translate(240, 60) scale(1.5)" fill="rgba(238, 238, 238, 1)"></use>
            <use xlink:href="#SvgjsG1008" transform="translate(240, 90) scale(1.5)" fill="rgba(238, 238, 238, 1)"></use>
            <use xlink:href="#SvgjsG1009" transform="translate(240, 120) scale(1.5)" fill="rgba(238, 238, 238, 1)"></use>
            <use xlink:href="#SvgjsG1005" transform="translate(240, 150) scale(1.5)" fill="rgba(238, 238, 238, 1)"></use>
            <use xlink:href="#SvgjsG1009" transform="translate(240, 180) scale(1.5)" fill="rgba(238, 238, 238, 1)"></use>
            <use xlink:href="#SvgjsG1010" transform="translate(240, 210) scale(1.5)" fill="rgba(238, 238, 238, 1)"></use>
            <use xlink:href="#SvgjsG1002" transform="translate(240, 240) scale(1.5)" fill="rgba(238, 238, 238, 1)"></use>
            <use xlink:href="#SvgjsG1002" transform="translate(240, 270) scale(1.5)" fill="rgba(238, 238, 238, 1)"></use>
            <use xlink:href="#SvgjsG1009" transform="translate(270, 0) scale(1.5)" fill="rgba(238, 238, 238, 1)"></use>
            <use xlink:href="#SvgjsG1006" transform="translate(270, 30) scale(1.5)" fill="rgba(238, 238, 238, 1)"></use>
            <use xlink:href="#SvgjsG1008" transform="translate(270, 60) scale(1.5)" fill="rgba(238, 238, 238, 1)"></use>
            <use xlink:href="#SvgjsG1003" transform="translate(270, 90) scale(1.5)" fill="rgba(238, 238, 238, 1)"></use>
            <use xlink:href="#SvgjsG1004" transform="translate(270, 120) scale(1.5)" fill="rgba(238, 238, 238, 1)"></use>
            <use xlink:href="#SvgjsG1007" transform="translate(270, 150) scale(1.5)" fill="rgba(238, 238, 238, 1)"></use>
            <use xlink:href="#SvgjsG1005" transform="translate(270, 180) scale(1.5)" fill="rgba(238, 238, 238, 1)"></use>
            <use xlink:href="#SvgjsG1007" transform="translate(270, 210) scale(1.5)" fill="rgba(238, 238, 238, 1)"></use>
            <use xlink:href="#SvgjsG1009" transform="translate(270, 240) scale(1.5)" fill="rgba(238, 238, 238, 1)"></use>
            <use xlink:href="#SvgjsG1008" transform="translate(270, 270) scale(1.5)" fill="rgba(238, 238, 238, 1)"></use>
        </g>
    </defs>
</svg>